# xmcd
# 
# Track frame offsets:
#     150
#     28926
#     65087
#     91441
#     120917
#     150622
#     187495
#     206999
#     236618
#     282540
#     311730
# 
# Disc length: 4619
# 
# Revision: 3
# Processed by: cddbd v1.5PL3 Copyright (c) Steve Scherf et al.
# Submitted via: BonkEnc v1.0beta2
# 
DISCID=ab12090b
DTITLE=Akanoid - Best Off
DYEAR=1900
DGENRE=
TTITLE0=Fat Beast
TTITLE1=Blue,Yellow,Black&White
TTITLE2=Alan`s Future
TTITLE3=Groove Supporter
TTITLE4=Water Drop
TTITLE5=Base Breaker
TTITLE6=Walking on Air
TTITLE7=Genetronique
TTITLE8=Akanoid
TTITLE9=Best Before
TTITLE10=End
EXTD=
EXTT0=
EXTT1=
EXTT2=
EXTT3=
EXTT4=
EXTT5=
EXTT6=
EXTT7=
EXTT8=
EXTT9=
EXTT10=
PLAYORDER=
